{
    "asset": {
        "copyright": "2025 (c) Adobe Inc.",
        "generator": "Adobe Substance 3D Stager - 71e900fc2bce8c66db9475ffdc4ac3f89b2e4b0c",
        "version": "2.0"
    },
    "accessors": [
        {
            "bufferView": 0,
            "componentType": 5126,
            "count": 28,
            "type": "VEC3",
            "max": [
                0.03273579850792885,
                0.04726339876651764,
                0.015009399503469468
            ],
            "min": [
                0.012262599542737008,
                -0.044510796666145328,
                -0.015009399503469468
            ]
        },
        {
            "bufferView": 1,
            "componentType": 5126,
            "count": 28,
            "type": "VEC3"
        },
        {
            "bufferView": 2,
            "componentType": 5126,
            "count": 28,
            "type": "VEC4"
        },
        {
            "bufferView": 3,
            "componentType": 5126,
            "count": 28,
            "type": "VEC2"
        },
        {
            "bufferView": 4,
            "componentType": 5125,
            "count": 60,
            "type": "SCALAR",
            "max": [
                27.0
            ],
            "min": [
                0.0
            ]
        },
        {
            "bufferView": 5,
            "componentType": 5126,
            "count": 1288,
            "type": "VEC3",
            "max": [
                0.06841529905796051,
                -0.022357599809765817,
                0.015009399503469468
            ],
            "min": [
                0.04410659521818161,
                -0.044510796666145328,
                -0.015009399503469468
            ]
        },
        {
            "bufferView": 6,
            "componentType": 5126,
            "count": 1288,
            "type": "VEC3"
        },
        {
            "bufferView": 7,
            "componentType": 5126,
            "count": 1288,
            "type": "VEC4"
        },
        {
            "bufferView": 8,
            "componentType": 5126,
            "count": 1288,
            "type": "VEC2"
        },
        {
            "bufferView": 9,
            "componentType": 5125,
            "count": 4596,
            "type": "SCALAR",
            "max": [
                1287.0
            ],
            "min": [
                0.0
            ]
        },
        {
            "bufferView": 10,
            "componentType": 5126,
            "count": 56,
            "type": "VEC3",
            "max": [
                0.14865899085998536,
                0.10807399451732636,
                0.015009399503469468
            ],
            "min": [
                -0.14865899085998536,
                -0.10807399451732636,
                -0.015009399503469468
            ]
        },
        {
            "bufferView": 11,
            "componentType": 5126,
            "count": 56,
            "type": "VEC3"
        },
        {
            "bufferView": 12,
            "componentType": 5126,
            "count": 56,
            "type": "VEC4"
        },
        {
            "bufferView": 13,
            "componentType": 5126,
            "count": 56,
            "type": "VEC2"
        },
        {
            "bufferView": 14,
            "componentType": 5125,
            "count": 144,
            "type": "SCALAR",
            "max": [
                55.0
            ],
            "min": [
                0.0
            ]
        },
        {
            "bufferView": 15,
            "componentType": 5126,
            "count": 858,
            "type": "VEC3",
            "max": [
                -0.0019676999654620888,
                0.023014498874545099,
                0.015009399503469468
            ],
            "min": [
                -0.06841529905796051,
                -0.044510796666145328,
                -0.015009399503469468
            ]
        },
        {
            "bufferView": 16,
            "componentType": 5126,
            "count": 858,
            "type": "VEC3"
        },
        {
            "bufferView": 17,
            "componentType": 5126,
            "count": 858,
            "type": "VEC4"
        },
        {
            "bufferView": 18,
            "componentType": 5126,
            "count": 858,
            "type": "VEC2"
        },
        {
            "bufferView": 19,
            "componentType": 5125,
            "count": 3012,
            "type": "SCALAR",
            "max": [
                857.0
            ],
            "min": [
                0.0
            ]
        }
    ],
    "bufferViews": [
        {
            "buffer": 0,
            "byteOffset": 0,
            "byteLength": 336,
            "target": 34962
        },
        {
            "buffer": 0,
            "byteOffset": 336,
            "byteLength": 336,
            "target": 34962
        },
        {
            "buffer": 0,
            "byteOffset": 672,
            "byteLength": 448,
            "target": 34962
        },
        {
            "buffer": 0,
            "byteOffset": 1120,
            "byteLength": 224,
            "target": 34962
        },
        {
            "buffer": 0,
            "byteOffset": 1344,
            "byteLength": 240,
            "target": 34963
        },
        {
            "buffer": 0,
            "byteOffset": 1584,
            "byteLength": 15456,
            "target": 34962
        },
        {
            "buffer": 0,
            "byteOffset": 17040,
            "byteLength": 15456,
            "target": 34962
        },
        {
            "buffer": 0,
            "byteOffset": 32496,
            "byteLength": 20608,
            "target": 34962
        },
        {
            "buffer": 0,
            "byteOffset": 53104,
            "byteLength": 10304,
            "target": 34962
        },
        {
            "buffer": 0,
            "byteOffset": 63408,
            "byteLength": 18384,
            "target": 34963
        },
        {
            "buffer": 0,
            "byteOffset": 81792,
            "byteLength": 672,
            "target": 34962
        },
        {
            "buffer": 0,
            "byteOffset": 82464,
            "byteLength": 672,
            "target": 34962
        },
        {
            "buffer": 0,
            "byteOffset": 83136,
            "byteLength": 896,
            "target": 34962
        },
        {
            "buffer": 0,
            "byteOffset": 84032,
            "byteLength": 448,
            "target": 34962
        },
        {
            "buffer": 0,
            "byteOffset": 84480,
            "byteLength": 576,
            "target": 34963
        },
        {
            "buffer": 0,
            "byteOffset": 85056,
            "byteLength": 10296,
            "target": 34962
        },
        {
            "buffer": 0,
            "byteOffset": 95352,
            "byteLength": 10296,
            "target": 34962
        },
        {
            "buffer": 0,
            "byteOffset": 105648,
            "byteLength": 13728,
            "target": 34962
        },
        {
            "buffer": 0,
            "byteOffset": 119376,
            "byteLength": 6864,
            "target": 34962
        },
        {
            "buffer": 0,
            "byteOffset": 126240,
            "byteLength": 12048,
            "target": 34963
        }
    ],
    "buffers": [
        {
            "byteLength": 138288,
            "uri": "nl_logo_3d_szene_binary.bin"
        }
    ],
    "materials": [
        {
            "pbrMetallicRoughness": {
                "baseColorFactor": [
                    0.0,
                    0.0,
                    0.0,
                    1.0
                ],
                "metallicFactor": 0.0,
                "roughnessFactor": 0.6000000238418579
            },
            "name": "Material 0",
            "doubleSided": true,
            "extensions": {
                "KHR_materials_ior": {
                    "ior": 1.600000023841858
                }
            }
        }
    ],
    "meshes": [
        {
            "name": "groupNumber_0",
            "primitives": [
                {
                    "attributes": {
                        "TANGENT": 2,
                        "NORMAL": 1,
                        "POSITION": 0,
                        "TEXCOORD_0": 3
                    },
                    "indices": 4,
                    "material": 0
                }
            ]
        },
        {
            "name": "groupNumber_1",
            "primitives": [
                {
                    "attributes": {
                        "POSITION": 5,
                        "NORMAL": 6,
                        "TANGENT": 7,
                        "TEXCOORD_0": 8
                    },
                    "indices": 9,
                    "material": 0
                }
            ]
        },
        {
            "name": "groupNumber_2",
            "primitives": [
                {
                    "attributes": {
                        "TANGENT": 12,
                        "NORMAL": 11,
                        "POSITION": 10,
                        "TEXCOORD_0": 13
                    },
                    "indices": 14,
                    "material": 0
                }
            ]
        },
        {
            "name": "groupNumber_3",
            "primitives": [
                {
                    "attributes": {
                        "POSITION": 15,
                        "NORMAL": 16,
                        "TANGENT": 17,
                        "TEXCOORD_0": 18
                    },
                    "indices": 19,
                    "material": 0
                }
            ]
        }
    ],
    "nodes": [
        {
            "name": "working_cam_n3d"
        },
        {
            "children": [
                2,
                3,
                4,
                5
            ],
            "translation": [
                0.0,
                0.16690191626548768,
                0.0
            ],
            "name": "nl_logo_3d"
        },
        {
            "mesh": 0,
            "name": "groupNumber_0"
        },
        {
            "mesh": 1,
            "name": "groupNumber_1"
        },
        {
            "mesh": 2,
            "name": "groupNumber_2"
        },
        {
            "mesh": 3,
            "name": "groupNumber_3"
        }
    ],
    "scenes": [
        {
            "nodes": [
                1
            ],
            "name": "scene"
        }
    ],
    "scene": 0,
    "extensionsUsed": [
        "KHR_materials_ior"
    ]
}