<svg id="Ebene_1" data-name="Ebene 1" xmlns="http://www.w3.org/2000/svg" viewBox="0 0 1366 768"><path d="M1104.13,690.16H261.87V77.84h842.26ZM322.66,629.37h720.68V138.63H322.66Z"/><path d="M775.74,250.11v260h-58v-260Z"/><path d="M867.13,456.32q-9.64-9-24.58-9-15.27,0-24.92,9A29.48,29.48,0,0,0,808,478.89a29.12,29.12,0,0,0,9.68,22.22q9.64,9,24.92,9,14.93,0,24.58-9a29.15,29.15,0,0,0,9.68-22.22A29.52,29.52,0,0,0,867.13,456.32Z"/><path d="M657.58,340.34q19.84,21.54,19.85,59.18V510.09H619.77V407.33q0-19-9.84-29.51T583.48,367.3q-16.62,0-26.46,10.52t-9.83,29.51V510.09h-58V320.84h58v25.1a61.06,61.06,0,0,1,23.74-19.84q14.93-7.29,33.58-7.3Q637.73,318.8,657.58,340.34Z"/></svg>