<?xml version="1.0" encoding="UTF-8"?>
<svg id="Ebene_1" data-name="Ebene 1" xmlns="http://www.w3.org/2000/svg" viewBox="0 0 676.587 250">
  <defs>
    <style>
      .cls-1 {
        fill: #6fb22d;
      }

      .cls-2 {
        fill: #020c09;
        font-family: Rubik-Medium, Rubik;
        font-size: 79.505px;
        font-weight: 500;
      }

      .cls-3 {
        letter-spacing: -.064em;
      }

      .cls-4 {
        letter-spacing: -.005em;
      }

      .cls-5 {
        fill: #00645f;
      }

      .cls-6 {
        fill: #f6bb10;
      }

      .cls-7 {
        fill: #466c29;
      }
    </style>
  </defs>
  <g>
    <path class="cls-1" d="M170.825,78.64c2.227,1.711,5.51,5.072,7.341,6.608,6.546,5.49,14.36,9.35,22.848,10.604,9.139,1.35,18.226-.031,26.285-4.608.084-.048.168-.096.252-.144,5.724-3.294,10.772-7.509,15.704-11.862,1.482-1.308,3.668-1.682,5.569-1.145,2.592.732,3.445,3.003,3.442,5.486-.023,18.192-.018,36.383-.018,54.575,0,2.687,0,5.374,0,8.062s0,5.374,0,8.062c0,2.687,0,5.374,0,8.062s0,5.374,0,8.062,0,5.374,0,8.062,0,5.374,0,8.062,0,5.374,0,8.062,0,5.374.001,8.062,0,5.374.001,8.062,0,5.374.001,8.062.001,5.374.002,8.062.001,5.374.002,8.062c0,.896-.037,1.799-.008,2.69.03.919.04,1.842-.076,2.755-.258,2.021-1.344,4.148-3.33,4.946-.948.38-1.992.369-2.973.132-2.105-.51-3.623-2.409-3.92-4.508-.183-1.292-.008-2.6-.058-3.898-.05-1.31,0-2.636,0-3.948,0-2.688,0-5.376,0-8.063s0-5.376,0-8.063,0-5.376,0-8.063c0-1.169,0-2.338,0-3.508-.001-10.742-.002-21.484-.004-32.227s-.003-21.484-.005-32.227c-.004-10.566-.016-21.133-.013-31.7,0-3.811.023-7.62.04-11.43.003-.775.13-1.788-.114-2.534-.378-1.152-1.861-.01-2.394.424-2.736,2.227-5.536,4.175-8.68,5.784-4.093,2.094-8.466,3.643-12.966,4.59-9.228,1.94-18.986,1.234-27.881-1.866-5.506-1.919-10.419-4.852-15.118-8.268-.608-.442-1.636-.785-2.567-.893-.637-4.796-1.304-11.569-1.364-16.376Z"/>
    <path class="cls-6" d="M79.268,116.42c0,1.84-.01,3.68-.02,5.52-.01,1.32-.01,2.65-.02,3.99-3.27.03-6.54,0-9.81.01-2.93.01-5.58,1.01-7.09,3.49-2.72,4.44-3.22,9.31-1.02,14.11,1.74,3.8,5.14,5.21,9.19,5.4,2.89.13,5.8-.25,8.69.04,0,2.43.01,4.86.02,7.28v.74c-4.25.17-8.51.12-12.76-.06-7.29-.29-11.6-4.75-13.84-11.15-2.12-6.08-2.04-12.4.63-18.36,1.83-4.08,4.48-7.66,8.7-9.74,1.72-.84,3.49-1.32,5.44-1.29,3.96.08,7.93-.15,11.89.02Z"/>
    <path class="cls-6" d="M124.608,178.85c-2.47,3.84-6.57,6.03-11.36,6.09-5.94.08-11.87.02-17.81,0,0-.18-.01-.37-.01-.55-.03-2.32-.03-4.66,0-7,.19-.01.38-.01.57-.01,5.18-.05,10.37-.08,15.55-.09,1.89-.01,3.49-.61,4.88-1.94,3.07-2.93,4.55-8.11,2.82-11.98-1.64-3.68-3.42-6.48-8.74-6.36-4.95.11-9.9.07-14.86.06.01-2.68.01-5.37,0-8.06,6.46-.15,12.94-.54,19.37.08,6.49.63,10,5.27,11.93,11.07,2.19,6.54,1.32,13.01-2.34,18.69Z"/>
    <path class="cls-5" d="M13.958,69.234c1.248-2.17,2.374-4.412,3.37-6.709.505-1.166.977-2.346,1.415-3.539.415-1.131.768-2.252,1.557-3.192.896-1.068,2.409-1.589,3.767-1.701,8.163-.67,16.337-1.092,24.437.32,9.255,1.614,17.346,6.068,25.408,10.69,4.238,2.43,7.724,5.65,11.484,8.676-.633-.509-1.796-.768-2.551-1.073-.882-.357-1.77-.701-2.662-1.033-1.762-.655-3.542-1.259-5.338-1.812-3.525-1.085-7.111-1.969-10.736-2.649-7.152-1.343-14.443-1.882-21.716-1.727-7.404.158-14.782,1.029-22.053,2.415-2.134.407-4.254.877-6.383,1.334Z"/>
    <path class="cls-5" d="M159.754,69.288c-24.075-5.703-47.789-5.456-71.064,4.361.417-.176.897-.906,1.221-1.231,3.397-3.414,7.513-5.871,11.597-8.338,4.16-2.513,8.52-4.707,13.062-6.443,1.951-.746,3.934-1.407,5.945-1.971,4.055-1.138,8.256-2.03,12.478-2.123,5.75-.127,11.505.068,17.221.728.819.095,1.687.219,2.318.75.465.391.741.955,1.005,1.502,2.055,4.265,4.146,8.507,6.217,12.765Z"/>
    <path class="cls-5" d="M82.368,176.365c-.01.31-.01.63-.01.95-.11-.31-.1-.64.01-.95Z"/>
    <path class="cls-6" d="M117.908,227.32c-1.84,2.78-4.66,4.68-8.5,4.6-7.71-.16-15.43-.04-23.14-.05-1.51,0-3.02-.05-3.85-1.68-1.31-2.55.31-4.92,3.53-4.95,7.48-.07,14.96-.06,22.43-.08,2.59-.01,4.45-1.26,5.77-3.39,2.34-3.81.8-9.65-2.91-11.38-.85-.39-1.67-.39-2.51-.39-4.4-.03-8.81-.03-13.2-.03.26-1.76.25-3.54.25-5.07l-.01-.71v-1.22c5.24-.02,10.46-.31,15.71.21,2.65.26,4.38,1.71,5.81,3.55,5.5,7.04,5.25,13.57.62,20.59Z"/>
    <path class="cls-6" d="M127.768,123.6c-.16,1.62-1.6,2.2-3.04,2.52-3.38.74-6.57,2-9.75,3.36-2.37,1.01-4.83,1.66-7.5,1.73-3.14.07-5.85-.3-7.83-3.15-.81-1.17-2.06-2.07-3.75-2.13-.12,0-.23-.01-.34-.02-.02-3.15-.04-6.33-.05-9.52.13-.01.26-.01.4-.01,1.37-.01,2.54-.35,3.31-1.42,3.12-4.34,7.57-3.82,11.72-2.73,4.96,1.3,9.71,3.36,14.73,4.56.36.09.78.26,1.02.52,1.67,1.85,1.29,4.14,1.08,6.29Z"/>
    <path class="cls-1" d="M150.312,46.526c-19.561-1.556-40.959,4.154-59.773,19.529.765-1.512,1.357-2.768,2.426-4.108,3.956-4.956,8.43-9.619,13.315-13.667,6.212-5.148,13.343-9.144,21.122-11.351,4.398-1.248,8.962-1.88,13.536-1.824.679.008,1.345-.067,1.872.672,2.32,3.253,4.716,6.452,7.071,9.681.168.23.224.541.432,1.068Z"/>
    <path class="cls-1" d="M83.193,66.217c-17.273-14.444-37.072-21.076-59.779-19.818.78-1.558,2.081-2.881,3.104-4.294.767-1.06,1.507-2.14,2.219-3.238.589-.909,1.046-2.006,1.867-2.736,1.454-1.3,3.484-1.163,5.295-1.022,7.375.575,14.235,2.714,20.931,5.926,5.948,2.853,10.498,7.255,15.33,11.475,4.501,3.93,7.927,8.635,11.033,13.708Z"/>
    <path class="cls-7" d="M160.452,110.947c1.317-.48,1.708-1.363,1.577-2.779-.17-1.844-.048-3.716-.038-5.576.008-1.38-.027-2.465-.675-3.701.326.038.677-.075.856-.375.19-.319.185-.714.176-1.085-.112-4.23-.12-8.464-.026-12.694.069-3.085.301-6.421,4.062-6.808,1.526-.157,3.18-.132,4.499.749,1.485.992,1.558,2.737,1.567,4.384.022,3.948.056,7.898.125,11.84.139,8.009.305,15.99.107,23.995-.098,4.882-3.793,6.409-7.911,5.251-1.47-.413-2.087-2.349-2.273-3.68-.464-3.305.039-6.644-2.045-9.522Z"/>
    <path class="cls-6" d="M131.464,29.732c-16.553,6.988-31.623,15.587-41.747,31.024.232-.354.216-1.217.308-1.644.125-.586.267-1.168.421-1.746.317-1.189.691-2.362,1.095-3.524,1.568-4.515,3.776-8.495,6.329-12.521,2.483-3.917,5.23-7.708,8.594-10.92.336-.321.678-.635,1.025-.944,3.621-3.209,7.948-5.585,12.019-8.173.801-.509,1.637-1.032,2.579-1.15,1.293-.163,2.404.506,3.196,1.476,2.187,2.68,4.001,5.665,6.181,8.121Z"/>
    <path class="cls-6" d="M83.078,59.331c-.705-.813-1.362-1.671-2.051-2.498-.672-.807-1.388-1.587-2.032-2.416-1.752-2.252-3.699-4.29-5.794-6.22-1.36-1.254-2.776-2.447-4.237-3.582-1.008-.784-2.037-1.54-3.084-2.271-3.571-2.493-7.341-4.688-11.197-6.706-3.91-2.046-7.912-3.912-11.931-5.732-1.001-.453,2.168-3.738,2.425-4.04l3.675-4.315c.385-.453.782-.914,1.297-1.21.694-.398,1.534-.317,2.227.042,4.28,2.218,8.296,4.736,12.12,7.79,3.534,2.822,6.665,6.144,9.341,9.787,1.121,1.526,2.084,3.138,3.064,4.754,1.939,3.196,3.449,6.72,4.708,10.233.244.68.498,1.361.702,2.054.285.967.454,1.973.674,2.957.068.303.136.611.116.921-.009.148-.01.312-.024.454Z"/>
    <path class="cls-5" d="M161.895,114.153c-3.13-3.52-8.607-8.108-13.207-8.108-11.82.01-23.63.01-35.45-.01-3.54,0-7.09.09-10.62-.14-3.46-.23-6.67-1.55-10.14-3.25,0,18.715.213,37.431.175,56.142-.017,8.548-.333,17.094-.221,25.643.086,6.585.35,13.167.34,19.752-.006,3.83.384,10.666-5.163,10.583-5.519-.083-5.475-6.027-5.502-10.039-.109-16.162.234-32.323.097-48.491-.115-19.046.115-38.096.115-57.14-.01-5.38-.01-10.75.03-16.13.02-4.34,4.58-6.86,8.29-4.57,1.519.938,1.844,2.625,1.901,4.276.068,2-.016,4.067.696,5.972,1.834,4.906,7.534,7.008,12.363,7.022,14.18.04,28.35-.03,42.52.04,4.58.02,9.08.65,13.1,3.12.505.164,1.024-.421,1.091-.002.176,1.102.123,2.836.115,3.874-.01,1.86.169,4.597.048,6.508-.09,1.423-.097,3.484-.577,4.947Z"/>
    <path class="cls-6" d="M79.368,209.43c-.14-.02-.29-.05-.45-.1-3.29-.91-6.08-2.69-7.76-5.66-1.77-3.14-3.22-6.49-2.82-10.36.77-6.44,3.08-12.03,9.4-14.98.53-.25,1.01-.44,1.44-.57,0,1.15-.01,2.29-.02,3.43-.01,1.69-.02,3.4-.03,5.12-4.25,2.94-4.42,11.12-.4,14.55.13.11.25.22.37.33,0,1.19,0,2.38.01,3.56v.17c.01,1.16.02,2.79.26,4.51Z"/>
    <path class="cls-6" d="M100.689,4.417c-.153.555-.306,1.11-.459,1.664-.269.972-.538,1.945-.807,2.917s-.539,1.942-.808,2.913-.539,1.94-.809,2.91-.539,1.938-.808,2.907-.538,1.936-.807,2.904-.537,1.935-.805,2.902-.535,1.933-.802,2.9-.533,1.933-.798,2.899-.53,1.932-.794,2.899-.526,1.932-.788,2.898-.522,1.932-.782,2.898-.518,1.932-.775,2.899-.513,1.933-.767,2.9-.507,1.934-.759,2.902-.501,1.935-.749,2.904c-.062.242-.124.484-.186.726-.056.218-.133.43-.183.647-.056.246-.113.493-.169.739-.055.24-.128.479-.171.721-.138-.513-.161-1.05-.153-1.582.008-.591.022-1.184.033-1.773,0-.463.014-.928.036-1.391.002-.035.003-.07.005-.105.026-.975.058-1.95.098-2.925s.088-1.947.144-2.919.121-1.943.196-2.913.159-1.939.254-2.907.201-1.935.318-2.9.246-1.931.388-2.894.296-1.926.464-2.886.35-1.922.546-2.879.408-1.918.634-2.871.467-1.903.724-2.849c1.123-4.138,2.96-7.69,5.343-11.114.958-1.377,2.108-2.429,3.997-3.139Z"/>
  </g>
  <text class="cls-2" transform="translate(287.592 136.398)"><tspan x="0" y="0">Haiti</tspan><tspan class="cls-4" x="179.441" y="0">-</tspan><tspan x="217.285" y="0">Med</tspan><tspan x="0" y="95.406">e</tspan><tspan class="cls-3" x="45.874" y="95.406">.V</tspan><tspan x="110.591" y="95.406">.</tspan></text>
</svg>