<?xml version="1.0" encoding="UTF-8"?>
<svg id="Ebene_1" data-name="Ebene 1" xmlns="http://www.w3.org/2000/svg" viewBox="0 0 250 250">
  <defs>
    <style>
      .cls-1 {
        fill: #08635f;
      }

      .cls-1, .cls-2, .cls-3, .cls-4 {
        stroke-width: 0px;
      }

      .cls-2 {
        fill: #f6bb0e;
      }

      .cls-3 {
        fill: #466c22;
      }

      .cls-4 {
        fill: #70b22e;
      }
    </style>
  </defs>
  <path class="cls-4" d="M162.71,78.64c2.23,1.71,5.51,5.07,7.34,6.61,6.55,5.49,14.36,9.35,22.85,10.6,9.14,1.35,18.23-.03,26.29-4.61.08-.05.17-.1.25-.14,5.72-3.29,10.77-7.51,15.7-11.86,1.48-1.31,3.67-1.68,5.57-1.15,2.59.73,3.44,3,3.44,5.49-.02,18.19-.02,36.38-.02,54.57,0,2.69,0,5.37,0,8.06s0,5.37,0,8.06,0,5.37,0,8.06,0,5.37,0,8.06,0,5.37,0,8.06,0,5.37,0,8.06,0,5.37,0,8.06,0,5.37,0,8.06,0,5.37,0,8.06,0,5.37,0,8.06,0,5.37,0,8.06,0,5.37,0,8.06c0,.9-.04,1.8,0,2.69s.04,1.84-.08,2.76c-.26,2.02-1.34,4.15-3.33,4.95-.95.38-1.99.37-2.97.13-2.11-.51-3.62-2.41-3.92-4.51-.18-1.29,0-2.6-.06-3.9s0-2.64,0-3.95c0-2.69,0-5.38,0-8.06s0-5.38,0-8.06,0-5.38,0-8.06c0-1.17,0-2.34,0-3.51,0-10.74,0-21.48,0-32.23,0-10.74,0-21.48,0-32.23,0-10.57-.02-21.13-.01-31.7,0-3.81.02-7.62.04-11.43,0-.78.13-1.79-.11-2.53-.38-1.15-1.86-.01-2.39.42-2.74,2.23-5.54,4.18-8.68,5.78-4.09,2.09-8.47,3.64-12.97,4.59-9.23,1.94-18.99,1.23-27.88-1.87-5.51-1.92-10.42-4.85-15.12-8.27-.61-.44-1.64-.78-2.57-.89-.64-4.8-1.3-11.57-1.36-16.38Z"/>
  <path class="cls-2" d="M71.15,116.42c0,1.84-.01,3.68-.02,5.52-.01,1.32-.01,2.65-.02,3.99-3.27.03-6.54,0-9.81.01-2.93.01-5.58,1.01-7.09,3.49-2.72,4.44-3.22,9.31-1.02,14.11,1.74,3.8,5.14,5.21,9.19,5.4,2.89.13,5.8-.25,8.69.04,0,2.43.01,4.86.02,7.28v.74c-4.25.17-8.51.12-12.76-.06-7.29-.29-11.6-4.75-13.84-11.15-2.12-6.08-2.04-12.4.63-18.36,1.83-4.08,4.48-7.66,8.7-9.74,1.72-.84,3.49-1.32,5.44-1.29,3.96.08,7.93-.15,11.89.02Z"/>
  <path class="cls-2" d="M116.49,178.85c-2.47,3.84-6.57,6.03-11.36,6.09-5.94.08-11.87.02-17.81,0,0-.18-.01-.37-.01-.55-.03-2.32-.03-4.66,0-7,.19-.01.38-.01.57-.01,5.18-.05,10.37-.08,15.55-.09,1.89,0,3.49-.61,4.88-1.94,3.07-2.93,4.55-8.11,2.82-11.98-1.64-3.68-3.42-6.48-8.74-6.36-4.95.11-9.9.07-14.86.06,0-2.68,0-5.37,0-8.06,6.46-.15,12.94-.54,19.37.08,6.49.63,10,5.27,11.93,11.07,2.19,6.54,1.32,13.01-2.34,18.69Z"/>
  <path class="cls-1" d="M5.84,69.23c1.25-2.17,2.37-4.41,3.37-6.71.51-1.17.98-2.35,1.41-3.54.41-1.13.77-2.25,1.56-3.19.9-1.07,2.41-1.59,3.77-1.7,8.16-.67,16.34-1.09,24.44.32,9.25,1.61,17.35,6.07,25.41,10.69,4.24,2.43,7.72,5.65,11.48,8.68-.63-.51-1.8-.77-2.55-1.07-.88-.36-1.77-.7-2.66-1.03-1.76-.65-3.54-1.26-5.34-1.81-3.52-1.08-7.11-1.97-10.74-2.65-7.15-1.34-14.44-1.88-21.72-1.73-7.4.16-14.78,1.03-22.05,2.42-2.13.41-4.25.88-6.38,1.33Z"/>
  <path class="cls-1" d="M151.64,69.29c-24.07-5.7-47.79-5.46-71.06,4.36.42-.18.9-.91,1.22-1.23,3.4-3.41,7.51-5.87,11.6-8.34s8.52-4.71,13.06-6.44c1.95-.75,3.93-1.41,5.95-1.97,4.06-1.14,8.26-2.03,12.48-2.12,5.75-.13,11.5.07,17.22.73.82.09,1.69.22,2.32.75.46.39.74.95,1,1.5,2.06,4.27,4.15,8.51,6.22,12.77Z"/>
  <path class="cls-1" d="M74.25,176.37c-.01.31-.01.63-.01.95-.11-.31-.1-.64.01-.95Z"/>
  <path class="cls-2" d="M109.79,227.32c-1.84,2.78-4.66,4.68-8.5,4.6-7.71-.16-15.43-.04-23.14-.05-1.51,0-3.02-.05-3.85-1.68-1.31-2.55.31-4.92,3.53-4.95,7.48-.07,14.96-.06,22.43-.08,2.59-.01,4.45-1.26,5.77-3.39,2.34-3.81.8-9.65-2.91-11.38-.85-.39-1.67-.39-2.51-.39-4.4-.03-8.81-.03-13.2-.03.26-1.76.25-3.54.25-5.07v-.71s-.01-1.22-.01-1.22c5.24-.02,10.46-.31,15.71.21,2.65.26,4.38,1.71,5.81,3.55,5.5,7.04,5.25,13.57.62,20.59Z"/>
  <path class="cls-2" d="M119.65,123.6c-.16,1.62-1.6,2.2-3.04,2.52-3.38.74-6.57,2-9.75,3.36-2.37,1.01-4.83,1.66-7.5,1.73-3.14.07-5.85-.3-7.83-3.15-.81-1.17-2.06-2.07-3.75-2.13-.12,0-.23-.01-.34-.02-.02-3.15-.04-6.33-.05-9.52.13-.01.26-.01.4-.01,1.37-.01,2.54-.35,3.31-1.42,3.12-4.34,7.57-3.82,11.72-2.73,4.96,1.3,9.71,3.36,14.73,4.56.36.09.78.26,1.02.52,1.67,1.85,1.29,4.14,1.08,6.29Z"/>
  <path class="cls-4" d="M142.2,46.53c-19.56-1.56-40.96,4.15-59.77,19.53.76-1.51,1.36-2.77,2.43-4.11,3.96-4.96,8.43-9.62,13.31-13.67,6.21-5.15,13.34-9.14,21.12-11.35,4.4-1.25,8.96-1.88,13.54-1.82.68,0,1.35-.07,1.87.67,2.32,3.25,4.72,6.45,7.07,9.68.17.23.22.54.43,1.07Z"/>
  <path class="cls-4" d="M75.08,66.22c-17.27-14.44-37.07-21.08-59.78-19.82.78-1.56,2.08-2.88,3.1-4.29.77-1.06,1.51-2.14,2.22-3.24.59-.91,1.05-2.01,1.87-2.74,1.45-1.3,3.48-1.16,5.3-1.02,7.38.58,14.24,2.71,20.93,5.93,5.95,2.85,10.5,7.26,15.33,11.47,4.5,3.93,7.93,8.63,11.03,13.71Z"/>
  <path class="cls-3" d="M152.34,110.95c1.32-.48,1.71-1.36,1.58-2.78-.17-1.84-.05-3.72-.04-5.58,0-1.38-.03-2.47-.67-3.7.33.04.68-.07.86-.37.19-.32.19-.71.18-1.09-.11-4.23-.12-8.46-.03-12.69.07-3.08.3-6.42,4.06-6.81,1.53-.16,3.18-.13,4.5.75,1.49.99,1.56,2.74,1.57,4.38.02,3.95.06,7.9.12,11.84.14,8.01.3,15.99.11,24-.1,4.88-3.79,6.41-7.91,5.25-1.47-.41-2.09-2.35-2.27-3.68-.46-3.31.04-6.64-2.05-9.52Z"/>
  <path class="cls-2" d="M123.35,29.73c-16.55,6.99-31.62,15.59-41.75,31.02.23-.35.22-1.22.31-1.64.13-.59.27-1.17.42-1.75.32-1.19.69-2.36,1.09-3.52,1.57-4.52,3.78-8.49,6.33-12.52s5.23-7.71,8.59-10.92c.34-.32.68-.64,1.03-.94,3.62-3.21,7.95-5.59,12.02-8.17.8-.51,1.64-1.03,2.58-1.15,1.29-.16,2.4.51,3.2,1.48,2.19,2.68,4,5.67,6.18,8.12Z"/>
  <path class="cls-2" d="M74.96,59.33c-.7-.81-1.36-1.67-2.05-2.5-.67-.81-1.39-1.59-2.03-2.42-1.75-2.25-3.7-4.29-5.79-6.22-1.36-1.25-2.78-2.45-4.24-3.58-1.01-.78-2.04-1.54-3.08-2.27-3.57-2.49-7.34-4.69-11.2-6.71s-7.91-3.91-11.93-5.73c-1-.45,2.17-3.74,2.43-4.04l3.67-4.32c.39-.45.78-.91,1.3-1.21.69-.4,1.53-.32,2.23.04,4.28,2.22,8.3,4.74,12.12,7.79,3.53,2.82,6.66,6.14,9.34,9.79,1.12,1.53,2.08,3.14,3.06,4.75,1.94,3.2,3.45,6.72,4.71,10.23.24.68.5,1.36.7,2.05.29.97.45,1.97.67,2.96.07.3.14.61.12.92,0,.15,0,.31-.02.45Z"/>
  <path class="cls-1" d="M153.78,114.15c-3.13-3.52-8.61-8.11-13.21-8.11-11.82.01-23.63.01-35.45,0-3.54,0-7.09.09-10.62-.14-3.46-.23-6.67-1.55-10.14-3.25,0,18.72.21,37.43.17,56.14-.02,8.55-.33,17.09-.22,25.64.09,6.58.35,13.17.34,19.75,0,3.83.38,10.67-5.16,10.58-5.52-.08-5.47-6.03-5.5-10.04-.11-16.16.23-32.32.1-48.49-.12-19.05.11-38.1.11-57.14-.01-5.38-.01-10.75.03-16.13.02-4.34,4.58-6.86,8.29-4.57,1.52.94,1.84,2.63,1.9,4.28.07,2-.02,4.07.7,5.97,1.83,4.91,7.53,7.01,12.36,7.02,14.18.04,28.35-.03,42.52.04,4.58.02,9.08.65,13.1,3.12.5.16,1.02-.42,1.09,0,.18,1.1.12,2.84.11,3.87,0,1.86.17,4.6.05,6.51-.09,1.42-.1,3.48-.58,4.95Z"/>
  <path class="cls-2" d="M71.25,209.43c-.14-.02-.29-.05-.45-.1-3.29-.91-6.08-2.69-7.76-5.66-1.77-3.14-3.22-6.49-2.82-10.36.77-6.44,3.08-12.03,9.4-14.98.53-.25,1.01-.44,1.44-.57,0,1.15-.01,2.29-.02,3.43,0,1.69-.02,3.4-.03,5.12-4.25,2.94-4.42,11.12-.4,14.55.13.11.25.22.37.33,0,1.19,0,2.38.01,3.56v.17c.01,1.16.02,2.79.26,4.51Z"/>
  <path class="cls-2" d="M92.57,4.42c-.15.55-.31,1.11-.46,1.66-.27.97-.54,1.94-.81,2.92s-.54,1.94-.81,2.91-.54,1.94-.81,2.91-.54,1.94-.81,2.91-.54,1.94-.81,2.9-.54,1.93-.8,2.9-.54,1.93-.8,2.9-.53,1.93-.8,2.9-.53,1.93-.79,2.9-.53,1.93-.79,2.9-.52,1.93-.78,2.9-.52,1.93-.78,2.9-.51,1.93-.77,2.9-.51,1.93-.76,2.9-.5,1.94-.75,2.9c-.06.24-.12.48-.19.73-.06.22-.13.43-.18.65-.06.25-.11.49-.17.74s-.13.48-.17.72c-.14-.51-.16-1.05-.15-1.58,0-.59.02-1.18.03-1.77,0-.46.01-.93.04-1.39,0-.04,0-.07,0-.11.03-.98.06-1.95.1-2.93s.09-1.95.14-2.92.12-1.94.2-2.91.16-1.94.25-2.91.2-1.93.32-2.9.25-1.93.39-2.89.3-1.93.46-2.89.35-1.92.55-2.88.41-1.92.63-2.87.47-1.9.72-2.85c1.12-4.14,2.96-7.69,5.34-11.11.96-1.38,2.11-2.43,4-3.14Z"/>
</svg>