<svg width="65" height="83" viewBox="0 0 65 83" fill="none" xmlns="http://www.w3.org/2000/svg">
<g filter="url(#filter0_b)">
<path d="M0 25C0 11.1929 11.1929 0 25 0H40C53.8071 0 65 11.1929 65 25V83H0V25Z" fill="#769C65" fill-opacity="0.5"/>
</g>
<path d="M7.44297 66.042H5.58368C5.88552 65.2331 6.22357 64.3276 6.51333 63.4463C6.80309 64.3276 7.14114 65.2331 7.44297 66.042ZM7.98627 67.4425L8.37261 68.4446C8.54164 68.8672 8.75896 69.1087 9.13323 69.1087C9.54372 69.1087 9.84556 68.831 9.84556 68.4084C9.84556 68.1549 9.7369 67.8772 9.65238 67.6599L7.26187 61.5749C7.09285 61.1524 6.86345 60.9471 6.51333 60.9471C6.1632 60.9471 5.93381 61.1524 5.76478 61.5749L3.37427 67.6599C3.28976 67.8772 3.1811 68.1549 3.1811 68.4084C3.1811 68.831 3.48293 69.1087 3.89342 69.1087C4.2677 69.1087 4.48501 68.8672 4.65404 68.4446L5.04039 67.4425H7.98627ZM12.9246 67.5754V62.4804H14.0474C15.4842 62.4804 16.3172 63.398 16.3172 65.0279C16.3172 66.6578 15.4842 67.5754 14.0474 67.5754H12.9246ZM14.0354 69C16.4017 69 17.8022 67.3097 17.8022 65.0279C17.8022 62.746 16.4017 61.0558 14.0354 61.0558H12.1882C11.7414 61.0558 11.4517 61.3455 11.4517 61.7922V68.2635C11.4517 68.7102 11.7414 69 12.1882 69H14.0354ZM21.0977 67.5754V62.4804H22.2205C23.6572 62.4804 24.4903 63.398 24.4903 65.0279C24.4903 66.6578 23.6572 67.5754 22.2205 67.5754H21.0977ZM22.2084 69C24.5748 69 25.9753 67.3097 25.9753 65.0279C25.9753 62.746 24.5748 61.0558 22.2084 61.0558H20.3612C19.9145 61.0558 19.6247 61.3455 19.6247 61.7922V68.2635C19.6247 68.7102 19.9145 69 20.3612 69H22.2084ZM34.1929 66.042H32.3336C32.6354 65.2331 32.9735 64.3276 33.2632 63.4463C33.553 64.3276 33.891 65.2331 34.1929 66.042ZM34.7362 67.4425L35.1225 68.4446C35.2915 68.8672 35.5088 69.1087 35.8831 69.1087C36.2936 69.1087 36.5954 68.831 36.5954 68.4084C36.5954 68.1549 36.4868 67.8772 36.4023 67.6599L34.0118 61.5749C33.8427 61.1524 33.6133 60.9471 33.2632 60.9471C32.9131 60.9471 32.6837 61.1524 32.5147 61.5749L30.1242 67.6599C30.0396 67.8772 29.931 68.1549 29.931 68.4084C29.931 68.831 30.2328 69.1087 30.6433 69.1087C31.0176 69.1087 31.2349 68.8672 31.4039 68.4446L31.7903 67.4425H34.7362ZM42.4476 64.7985V62.4804H43.8239C44.6691 62.4804 45.1762 62.8788 45.1762 63.6395C45.1762 64.4001 44.6691 64.7985 43.8239 64.7985H42.4476ZM42.4476 66.199H43.8239C45.6108 66.199 46.6612 65.1486 46.6612 63.6274C46.6612 62.1062 45.6108 61.0558 43.8239 61.0558H41.7111C41.2644 61.0558 40.9746 61.3455 40.9746 61.7922V68.2877C40.9746 68.7948 41.3006 69.1087 41.7111 69.1087C42.1216 69.1087 42.4476 68.7948 42.4476 68.2877V66.199ZM49.7717 67.5754V65.6195H51.4861C51.9691 65.6195 52.2709 65.3056 52.2709 64.9192C52.2709 64.5329 51.9691 64.219 51.4861 64.219H49.7717V62.4804H52.7538C53.2488 62.4804 53.5507 62.1665 53.5507 61.7681C53.5507 61.3697 53.2488 61.0558 52.7538 61.0558H49.0353C48.5886 61.0558 48.2988 61.3455 48.2988 61.7922V68.2635C48.2988 68.7102 48.5886 69 49.0353 69H52.8263C53.3213 69 53.6231 68.6861 53.6231 68.2877C53.6231 67.8893 53.3213 67.5754 52.8263 67.5754H49.7717ZM58.5391 62.4804H60.0966C60.5916 62.4804 60.8934 62.1665 60.8934 61.7681C60.8934 61.3697 60.5916 61.0558 60.0966 61.0558H55.5087C55.0137 61.0558 54.7119 61.3697 54.7119 61.7681C54.7119 62.1665 55.0137 62.4804 55.5087 62.4804H57.0662V68.2877C57.0662 68.7948 57.3922 69.1087 57.8026 69.1087C58.2131 69.1087 58.5391 68.7948 58.5391 68.2877V62.4804Z" fill="white"/>
<circle cx="32.0668" cy="31" r="13" fill="white"/>
<path d="M54.1189 30.5594C54.1189 36.2774 51.8475 41.7611 47.8043 45.8043C43.7611 49.8475 38.2774 52.1189 32.5594 52.1189C26.8415 52.1189 21.3578 49.8475 17.3146 45.8043C13.2714 41.7611 11 36.2774 11 30.5594C11 24.8415 13.2714 19.3578 17.3146 15.3146C21.3578 11.2714 26.8415 9 32.5594 9C38.2774 9 43.7611 11.2714 47.8043 15.3146C51.8475 19.3578 54.1189 24.8415 54.1189 30.5594ZM33.9069 21.1272C33.9069 20.7698 33.7649 20.4271 33.5122 20.1744C33.2596 19.9217 32.9168 19.7797 32.5594 19.7797C32.2021 19.7797 31.8593 19.9217 31.6066 20.1744C31.3539 20.4271 31.212 20.7698 31.212 21.1272V29.212H23.1272C22.7698 29.212 22.4271 29.3539 22.1744 29.6066C21.9217 29.8593 21.7797 30.2021 21.7797 30.5594C21.7797 30.9168 21.9217 31.2596 22.1744 31.5122C22.4271 31.7649 22.7698 31.9069 23.1272 31.9069H31.212V39.9917C31.212 40.3491 31.3539 40.6918 31.6066 40.9445C31.8593 41.1972 32.2021 41.3392 32.5594 41.3392C32.9168 41.3392 33.2596 41.1972 33.5122 40.9445C33.7649 40.6918 33.9069 40.3491 33.9069 39.9917V31.9069H41.9917C42.3491 31.9069 42.6918 31.7649 42.9445 31.5122C43.1972 31.2596 43.3392 30.9168 43.3392 30.5594C43.3392 30.2021 43.1972 29.8593 42.9445 29.6066C42.6918 29.3539 42.3491 29.212 41.9917 29.212H33.9069V21.1272Z" fill="#F4804A"/>
<defs>
<filter id="filter0_b" x="-5" y="-5" width="75" height="93" filterUnits="userSpaceOnUse" color-interpolation-filters="sRGB">
<feFlood flood-opacity="0" result="BackgroundImageFix"/>
<feGaussianBlur in="BackgroundImage" stdDeviation="2.5"/>
<feComposite in2="SourceAlpha" operator="in" result="effect1_backgroundBlur"/>
<feBlend mode="normal" in="SourceGraphic" in2="effect1_backgroundBlur" result="shape"/>
</filter>
</defs>
</svg>
