<svg width="20" height="20" viewBox="0 0 20 20" fill="none" xmlns="http://www.w3.org/2000/svg">
<path d="M14.2589 8.90051L7.36856 2.69623C6.55659 1.96403 5.2846 2.5591 5.2846 3.67034L5.2846 16.0789C5.28439 16.3276 5.35384 16.5711 5.48462 16.7802C5.61541 16.9893 5.80199 17.1552 6.02202 17.258C6.24205 17.3608 6.4862 17.3961 6.72524 17.3598C6.96428 17.3234 7.18807 17.2169 7.36982 17.053L14.2577 10.8487C14.3927 10.7273 14.5009 10.5776 14.575 10.4096C14.6492 10.2415 14.6875 10.0591 14.6875 9.87462C14.6875 9.6901 14.6492 9.5077 14.575 9.33969C14.5009 9.17168 14.3927 9.02194 14.2577 8.90051L14.2589 8.90051Z" fill="#383838"/>
</svg>
