<svg width="188" height="35" viewBox="0 0 188 35" fill="none" xmlns="http://www.w3.org/2000/svg">
<rect width="188" height="35" rx="5.21739" fill="#769C65"/>
<path d="M83.1374 22.18C85.3274 22.18 86.4374 21.025 86.4374 19.39C86.4374 17.35 84.7124 16.9 83.2574 16.48C81.9974 16.105 81.1574 15.835 81.1574 14.635C81.1574 13.735 81.6224 13 83.1824 13C84.3674 13 84.7124 13.435 85.0574 13.675C85.1924 13.765 85.3124 13.825 85.4924 13.825C85.7774 13.825 85.9724 13.645 85.9724 13.33C85.9724 13.12 85.8824 12.955 85.6874 12.76C85.1624 12.235 84.2324 11.95 83.1674 11.95C81.1574 11.95 80.0474 12.985 80.0474 14.65C80.0474 16.555 81.5024 17.11 82.9124 17.53C84.2924 17.95 85.3274 18.1 85.3274 19.42C85.3274 20.485 84.6074 21.13 83.0924 21.13C81.5624 21.13 81.1424 20.485 80.7524 20.14C80.6324 20.035 80.4974 19.96 80.3174 19.96C80.0324 19.96 79.8224 20.155 79.8224 20.485C79.8224 20.665 79.8824 20.815 80.0174 20.98C80.6174 21.7 81.7424 22.18 83.1374 22.18ZM92.789 18.835V19.015C92.789 20.2 92.084 21.13 90.854 21.13C90.059 21.13 89.519 20.725 89.519 20.005C89.519 18.865 90.884 18.835 91.784 18.835H92.789ZM92.909 21.085C93.134 21.775 93.629 22.105 94.364 22.105C94.724 22.105 94.964 21.865 94.964 21.58C94.964 21.295 94.724 21.055 94.364 21.055C94.034 21.055 93.869 20.77 93.869 20.2V17.35C93.869 15.58 92.729 14.83 91.289 14.83C90.464 14.83 89.729 15.07 89.189 15.58C89.039 15.73 88.934 15.865 88.934 16.105C88.934 16.435 89.159 16.6 89.429 16.6C89.594 16.6 89.714 16.54 89.834 16.45C90.104 16.24 90.359 15.88 91.199 15.88C92.069 15.88 92.789 16.27 92.789 17.395V17.785H91.784C90.374 17.785 88.424 18.055 88.424 19.99C88.424 21.34 89.399 22.18 90.809 22.18C91.829 22.18 92.534 21.73 92.909 21.085ZM98.5375 16.06H99.9475C100.307 16.06 100.547 15.82 100.547 15.535C100.547 15.25 100.307 15.01 99.9475 15.01H98.5375V14.35C98.5375 13.3 98.9125 13 99.4825 13C99.8125 13 99.9475 13.105 100.187 13.105C100.517 13.105 100.697 12.91 100.697 12.625C100.697 12.13 100.157 11.95 99.5125 11.95C98.0275 11.95 97.4575 12.88 97.4575 14.29V15.01H96.7525C96.3925 15.01 96.1525 15.25 96.1525 15.535C96.1525 15.82 96.3925 16.06 96.7525 16.06H97.4575V21.49C97.4575 21.865 97.6975 22.105 97.9975 22.105C98.2975 22.105 98.5375 21.865 98.5375 21.49V16.06ZM103.016 17.995C103.151 16.78 103.811 15.88 104.921 15.88C106.031 15.88 106.706 16.78 106.841 17.995H103.016ZM103.031 19.045H107.411C107.741 19.045 107.951 18.835 107.951 18.505C107.951 16.51 106.841 14.83 104.921 14.83C103.016 14.83 101.906 16.51 101.906 18.505C101.906 20.5 103.016 22.18 105.086 22.18C105.896 22.18 106.601 21.895 107.096 21.445C107.231 21.325 107.366 21.16 107.366 20.905C107.366 20.605 107.171 20.41 106.871 20.41C106.661 20.41 106.496 20.53 106.331 20.68C106.046 20.935 105.641 21.13 105.071 21.13C103.706 21.13 103.136 20.02 103.031 19.045Z" fill="white"/>
</svg>
