<svg width="82" height="80" viewBox="0 0 82 80" fill="none" xmlns="http://www.w3.org/2000/svg">
<path d="M1.07886 5C1.07886 2.4787 3.12277 0.434783 5.64407 0.434783H77C79.5213 0.434783 81.5652 2.4787 81.5652 5V75C81.5652 77.5213 79.5213 79.5652 77 79.5652H5.64407C3.12277 79.5652 1.07886 77.5213 1.07886 75V5Z" fill="#F7F1EB" stroke="#B0CCA3" stroke-width="0.869565"/>
<path d="M41 31H29.6667M41 42.3333V31V42.3333ZM41 31V19.6667V31ZM41 31H52.3333H41Z" stroke="#C4C4C4" stroke-width="3" stroke-linecap="round" stroke-linejoin="round"/>
<path d="M30.696 60L31.4972 57.6903H34.9062L35.7031 60H37.1009L33.9602 51.2727H32.4389L29.2983 60H30.696ZM31.8807 56.5824L33.1676 52.858H33.2358L34.5227 56.5824H31.8807ZM40.6037 60.1278C41.7969 60.1278 42.2656 59.3991 42.4957 58.9815H42.6023V60H43.8466V51.2727H42.5724V54.5156H42.4957C42.2656 54.1108 41.831 53.3693 40.6122 53.3693C39.0312 53.3693 37.8679 54.6179 37.8679 56.7401C37.8679 58.858 39.0142 60.1278 40.6037 60.1278ZM40.8849 59.0412C39.7472 59.0412 39.1548 58.0398 39.1548 56.7273C39.1548 55.4276 39.7344 54.4517 40.8849 54.4517C41.9972 54.4517 42.5938 55.3594 42.5938 56.7273C42.5938 58.1037 41.9844 59.0412 40.8849 59.0412ZM48.1154 60.1278C49.3086 60.1278 49.7773 59.3991 50.0075 58.9815H50.114V60H51.3583V51.2727H50.0842V54.5156H50.0075C49.7773 54.1108 49.3427 53.3693 48.1239 53.3693C46.543 53.3693 45.3796 54.6179 45.3796 56.7401C45.3796 58.858 46.5259 60.1278 48.1154 60.1278ZM48.3967 59.0412C47.2589 59.0412 46.6665 58.0398 46.6665 56.7273C46.6665 55.4276 47.2461 54.4517 48.3967 54.4517C49.5089 54.4517 50.1055 55.3594 50.1055 56.7273C50.1055 58.1037 49.4961 59.0412 48.3967 59.0412Z" fill="#C4C4C4"/>
</svg>
