<svg width="731" height="731" viewBox="0 0 731 731" fill="none" xmlns="http://www.w3.org/2000/svg">
<g opacity="0.15">
<path d="M699.382 260.942C691.472 242.144 678.331 228.59 661.372 221.764L661.144 221.678C653.424 218.655 645.206 217.108 636.915 217.117H636.003C597.181 217.702 557.546 250.695 537.394 299.223C522.615 334.71 520.919 372.877 532.862 401.324C540.757 420.137 553.926 433.69 570.957 440.517L571.143 440.588C578.863 443.61 587.081 445.157 595.371 445.149C634.564 445.149 674.612 412.156 695.135 362.986C709.729 327.542 711.339 289.403 699.382 260.942Z" fill="#B0CCA3"/>
<path d="M544.264 470.245C521.874 456.791 500.71 444.064 486.885 421.204C448.747 357.925 425.716 319.729 365.33 319.729C304.945 319.729 281.857 357.925 243.633 421.204C229.78 444.092 208.573 456.833 186.112 470.344C160.358 485.822 133.75 501.813 122.263 533.281C117.797 544.625 115.548 556.72 115.636 568.911C115.636 620.147 155.541 661.834 204.568 661.834C229.865 661.834 256.787 653.069 285.277 643.791C312.669 634.869 340.988 625.648 365.473 625.648C389.958 625.648 418.205 634.869 445.498 643.791C473.93 653.012 500.724 661.777 526.093 661.777C575.048 661.777 614.882 620.09 614.882 568.854C614.923 556.654 612.625 544.559 608.113 533.224C596.626 501.727 570.003 485.722 544.264 470.245Z" fill="#B0CCA3"/>
<path d="M214.258 269.636C231.217 290.914 252.738 302.629 274.857 302.629C277.877 302.629 280.892 302.405 283.878 301.959C330.012 295.175 358.758 238.88 349.323 173.691C345.376 146.285 334.829 120.76 319.722 101.833C302.791 80.5975 281.242 68.8966 259.137 68.8966C256.117 68.8967 253.102 69.1206 250.116 69.5665C203.982 76.3504 175.236 132.646 184.671 197.834C188.604 225.198 199.151 250.695 214.258 269.636Z" fill="#B0CCA3"/>
<path d="M446.793 301.958C449.779 302.404 452.794 302.628 455.814 302.628C477.947 302.628 499.454 290.913 516.413 269.635C531.506 250.694 541.996 225.197 545.986 197.805C555.421 132.645 526.675 76.3498 480.541 69.5374C477.555 69.0915 474.539 68.8677 471.52 68.8676C449.415 68.8961 427.866 80.5969 410.935 101.832C395.828 120.759 385.281 146.284 381.348 173.719C371.913 238.879 400.659 295.175 446.793 301.958Z" fill="#B0CCA3"/>
<path d="M159.516 440.588L159.715 440.517C176.718 433.69 189.873 420.151 197.754 401.353C209.697 372.849 208.015 334.725 193.265 299.237C172.841 250.125 132.808 217.118 93.6575 217.118C85.3669 217.106 77.148 218.653 69.4292 221.678L69.2296 221.749C52.2698 228.519 39.1152 242.115 31.2339 260.914C19.2907 289.418 20.9725 327.542 35.7233 363.029C56.1463 412.141 96.1801 445.149 135.33 445.149C143.606 445.156 151.81 443.609 159.516 440.588V440.588Z" fill="#B0CCA3"/>
</g>
</svg>
