<svg width="19" height="21" viewBox="0 0 19 21" fill="none" xmlns="http://www.w3.org/2000/svg">
<path d="M12.0125 9L14.0125 11L14.3025 10.5C14.3916 10.3487 14.4391 10.1765 14.4402 10.0008C14.4412 9.82522 14.3957 9.65246 14.3084 9.5001C14.221 9.34774 14.0949 9.22122 13.9428 9.13338C13.7907 9.04555 13.6181 8.99953 13.4425 9H12.0125ZM14.5625 1.41C14.8525 0.74 14.3625 0 13.6425 0H6.1825C5.6325 0 5.1825 0.45 5.1825 1V2.17L11.4425 8.43L14.5625 1.41ZM18.6725 18.48L1.7025 1.52C1.60999 1.4273 1.5001 1.35375 1.37912 1.30357C1.25815 1.25339 1.12847 1.22756 0.9975 1.22756C0.866532 1.22756 0.736849 1.25339 0.615876 1.30357C0.494902 1.35375 0.385014 1.4273 0.2925 1.52C-0.0975 1.91 -0.0975 2.55 0.2925 2.94L5.1825 7.83V11C5.1825 11.55 5.6325 12 6.1825 12H8.1825V19.15C8.1825 19.66 8.8525 19.84 9.1125 19.4L11.9325 14.57L17.2525 19.89C17.6425 20.28 18.2825 20.28 18.6725 19.89C18.7652 19.7975 18.8388 19.6876 18.8889 19.5666C18.9391 19.4457 18.9649 19.316 18.9649 19.185C18.9649 19.054 18.9391 18.9243 18.8889 18.8034C18.8388 18.6824 18.7652 18.5725 18.6725 18.48Z" fill="#383838"/>
</svg>
