<svg width="143" height="175" viewBox="0 0 143 175" fill="none" xmlns="http://www.w3.org/2000/svg">
<path d="M0.399457 9.05774C0.399457 4.2759 4.2759 0.399457 9.05774 0.399457H132.942C137.724 0.399457 141.601 4.2759 141.601 9.05774V124.942C141.601 129.724 137.724 133.601 132.942 133.601H9.05774C4.27591 133.601 0.399457 129.724 0.399457 124.942V9.05774Z" fill="#F7F1EB" stroke="#B0CCA3" stroke-width="0.798913"/>
<path d="M17.241 11.9026C17.241 9.30004 19.8948 7.19023 23.1685 7.19023C26.4422 7.19023 29.096 9.30004 29.096 11.9026V120.288C29.096 122.89 26.4422 125 23.1685 125C19.8948 125 17.241 122.89 17.241 120.288V11.9026Z" fill="white"/>
<rect x="16.7771" y="32" width="12.7826" height="93.4728" rx="6.3913" fill="#769C65"/>
<path d="M49.1975 11.9026C49.1975 9.30004 51.8514 7.19023 55.125 7.19023C58.3987 7.19023 61.0526 9.30004 61.0526 11.9026V120.288C61.0526 122.89 58.3987 125 55.125 125C51.8514 125 49.1975 122.89 49.1975 120.288V11.9026Z" fill="white"/>
<rect x="48.7336" y="63.9565" width="12.7826" height="61.5163" rx="6.3913" fill="#769C65"/>
<path d="M81.1539 11.9026C81.1539 9.30004 83.8078 7.19023 87.0815 7.19023C90.3552 7.19023 93.009 9.30004 93.009 11.9026V120.288C93.009 122.89 90.3552 125 87.0815 125C83.8078 125 81.1539 122.89 81.1539 120.288V11.9026Z" fill="white"/>
<rect x="80.6902" y="32" width="12.7826" height="93.4728" rx="6.3913" fill="#769C65"/>
<path d="M113.11 11.9026C113.11 9.30004 115.764 7.19023 119.038 7.19023C122.312 7.19023 124.966 9.30004 124.966 11.9026V120.288C124.966 122.89 122.312 125 119.038 125C115.764 125 113.11 122.89 113.11 120.288V11.9026Z" fill="white"/>
<rect x="112.647" y="63.9565" width="12.7826" height="61.5163" rx="6.3913" fill="#769C65"/>
</svg>
