<svg width="20" height="20" viewBox="0 0 20 20" fill="none" xmlns="http://www.w3.org/2000/svg">
<path d="M6.96403 14.6625C6.96403 14.6625 7.38121 15.7844 7.14059 16.1797C6.8984 16.575 5.93121 16.4984 5.63434 16.6859C5.42184 16.8203 5.42496 17.1922 5.55778 17.3453C5.68903 17.5 7.60309 17.3672 7.97809 16.6422C8.35309 15.9172 7.84371 14.5297 7.84371 14.5297L6.96403 14.6625Z" fill="#DADADA"/>
<path d="M10.0203 14.5297L9.20624 14.7063C9.20624 14.7063 9.5578 16.1797 9.27186 16.6641C8.98592 17.1484 7.96092 17.6656 7.77655 18.0719C7.61092 18.4344 8.01874 18.7313 8.65624 18.3359C9.29374 17.9406 10.0156 17.35 10.1515 17.0594C10.4828 16.3563 10.0203 14.5297 10.0203 14.5297Z" fill="#DADADA"/>
<path d="M4.45631 3.42184C2.72506 3.81091 1.37662 5.27028 1.88287 7.49059C2.18287 8.80778 2.36724 9.27184 2.47662 9.86559C2.70787 11.114 2.64537 11.6625 3.17349 12.8062C3.73443 14.0234 5.79849 15.5859 8.37193 15.2109C10.9454 14.8359 11.9797 14.4843 11.9797 14.4843L12.9032 13.6703L13.7829 13.45L13.9141 12.8125C13.9141 12.8125 14.5719 12.7828 14.7063 12.5703C14.9188 12.2328 14.7938 11.9547 14.4204 11.8218C14.0469 11.6906 13.8266 11.5797 13.8266 11.5797C13.8266 11.5797 17.4563 9.18122 17.8954 8.91872C18.3344 8.65622 19.0172 8.20309 19.0501 8.03903C19.1329 7.62184 18.0047 6.69684 16.5313 6.25778C15.0579 5.81716 13.7922 5.69684 13.5844 5.86247C13.3079 6.07966 12.0891 8.37028 11.2751 8.26091C10.2188 8.11716 9.49381 7.12809 9.29537 6.56716C9.07037 5.93122 7.71881 2.68903 4.45631 3.42184Z" fill="#353535"/>
<path d="M2.23435 6.85311C1.97029 6.80936 1.29529 7.52811 1.16404 7.70311C1.03279 7.87811 0.824977 8.12967 0.899977 8.31874C1.01716 8.61249 1.61873 8.62811 1.97029 8.65624C2.33748 8.68592 3.0406 8.74374 3.15779 8.52499C3.27498 8.30467 3.02654 7.74842 2.82029 7.41092C2.62966 7.09686 2.50935 6.89999 2.23435 6.85311Z" fill="#DADADA"/>
<path d="M5.1111 7.4904C5.4555 7.44884 5.69816 7.11234 5.65309 6.73881C5.60802 6.36527 5.29229 6.09615 4.94788 6.13771C4.60348 6.17926 4.36082 6.51576 4.40589 6.8893C4.45096 7.26283 4.76669 7.53195 5.1111 7.4904Z" fill="white"/>
<path d="M7.09523 11.5172C6.79054 11.6281 7.19054 12.7047 7.60148 13.1891C8.03429 13.6984 9.08117 14.8422 10.6812 14.9922C11.7671 15.0953 12.2499 14.7875 12.5062 14.5078C12.6968 14.3 12.9015 14.0594 13.0421 13.95C13.2468 13.7891 13.453 13.9281 13.8046 13.6719C14.0577 13.4875 14.1124 13.1812 14.2452 13.0703C14.3765 12.9609 14.5999 12.9859 14.714 12.8797C14.9187 12.6891 14.8905 12.1312 14.7437 12.1031C14.5968 12.075 14.5827 12.4984 14.4359 12.5578C14.289 12.6172 14.0937 12.5797 13.8202 12.7344C13.5859 12.8656 13.6593 13.1297 13.4984 13.2469C13.3374 13.3641 13.0437 13.2031 12.6484 13.4234C12.4343 13.5422 12.253 14.1125 11.6359 14.2453C10.8702 14.4094 9.72179 13.8516 9.17179 13.4531C7.89523 12.5281 7.61554 11.3266 7.09523 11.5172Z" fill="white"/>
</svg>
