<svg width="21" height="20" viewBox="0 0 21 20" fill="none" xmlns="http://www.w3.org/2000/svg">
<g clip-path="url(#clip0)">
<path d="M19.1491 10.1859C18.4538 8.97813 18.0038 7.5125 17.4038 6.16094C18.9429 5.94531 20.1991 4.45 19.8726 2.82188C19.5507 1.22188 17.3601 -0.0921857 15.8929 1.03594C15.3101 1.48438 14.9616 1.90313 14.6772 2.55C14.6522 2.60625 14.6226 2.66563 14.5897 2.72813C13.2366 1.97656 11.6835 1.59844 10.1304 1.59844C8.57568 1.59844 7.02568 1.97813 5.67099 2.72813C5.63818 2.66563 5.60849 2.60625 5.5835 2.55C5.29599 1.90313 4.95068 1.48438 4.36631 1.03594C2.90068 -0.0906233 0.708494 1.22188 0.388182 2.82188C0.0616191 4.45 1.31631 5.94688 2.85693 6.16094C2.25849 7.5125 1.80849 8.97656 1.11006 10.1859C-0.336818 12.6953 -0.0477557 15.3875 2.15068 17.3516C3.50068 18.5547 5.25224 19.0766 7.07724 19.2781C8.08974 19.3891 9.12568 19.4 10.1304 19.3734C11.1335 19.4 12.1679 19.3891 13.1819 19.2781C15.0069 19.0766 16.7569 18.5547 18.1085 17.3516C20.3085 15.3875 20.5976 12.6953 19.1491 10.1859Z" fill="#353535"/>
<path d="M8.59292 15.6828C8.48667 16.1719 8.68979 16.7625 8.79761 17.2265C8.85229 17.4656 8.9226 17.7594 9.10229 17.9094C9.20698 18 9.32885 18.0297 9.45385 18.0375C9.70542 18.05 9.94917 18.1125 10.0804 17.7812C10.1164 17.6922 10.1804 17.5437 10.2773 17.6312C10.3664 17.714 10.3351 17.8578 10.4382 17.9375C10.757 18.1781 11.2617 18.1 11.4367 17.6594C11.6351 17.1562 11.6804 16.6422 11.7679 16.1109L11.332 15.4125L10.1148 15.0531L8.59292 15.6828Z" fill="white"/>
<path d="M6.38828 11.6234C6.38672 12.4265 5.87422 13.0734 5.25235 13.0719C4.62735 13.0656 4.1211 12.414 4.12422 11.6062C4.13047 10.8047 4.63985 10.1547 5.26485 10.1594C5.88672 10.1625 6.39297 10.8203 6.38828 11.6234Z" fill="white"/>
<path d="M13.8743 11.6234C13.8758 12.4265 14.3868 13.0734 15.0102 13.0719C15.6352 13.0656 16.1415 12.414 16.1383 11.6062C16.1321 10.8047 15.6211 10.1547 14.9977 10.1594C14.3743 10.1625 13.8696 10.8203 13.8743 11.6234Z" fill="white"/>
<path d="M13.2742 15.3641C13.1289 15.0812 12.7086 15.325 12.4883 15.3828C12.3274 15.4234 12.1539 15.4109 11.9836 15.4109C11.6524 15.4109 11.3133 15.3937 11.0039 15.2641C10.893 15.2172 10.7367 15.1437 10.6664 15.0375C10.4477 14.7141 10.7305 14.0328 10.3164 13.8328C10.0867 13.7219 9.83205 13.8375 9.78049 14.0609C9.75861 14.1594 9.73986 14.2719 9.74299 14.3734C9.74924 14.4781 9.7258 14.5453 9.71018 14.6516C9.69924 14.7266 9.69924 14.7812 9.6758 14.8469C9.6383 14.9547 9.54611 15.0797 9.44611 15.15C9.21799 15.3125 8.96174 15.4109 8.69142 15.4609C8.4008 15.5125 8.0883 15.4969 7.8133 15.4172C7.62424 15.3625 7.41642 15.1766 7.22267 15.175C7.04455 15.1734 6.93986 15.3281 6.95236 15.4922C6.98361 15.8781 7.37736 16.0062 7.68986 16.1047C8.15392 16.25 8.6758 16.2516 9.13674 16.0875C9.41642 15.9875 9.70861 15.8578 10.0102 15.8062C10.3055 15.7562 10.4774 15.8844 10.7477 15.9594C11.0445 16.0437 11.3242 16.1641 11.6336 16.1984C11.9524 16.2344 12.2789 16.2 12.5867 16.1047C12.8352 16.0266 13.3867 15.8328 13.3102 15.4656C13.3008 15.4266 13.2883 15.3922 13.2742 15.3641Z" fill="white"/>
<path d="M8.85857 12.8984C8.55388 12.8969 8.36326 13.0141 8.56638 13.4453C8.98669 14.3359 10.1789 14.7406 11.0242 14.2109C11.1617 14.125 11.3398 14.025 11.4554 13.9125C11.5992 13.775 11.7008 13.5375 11.7664 13.3531C11.8492 13.1266 11.8633 12.825 11.5679 12.7734C11.3367 12.7328 11.107 12.9234 10.8898 12.975C10.6008 13.0469 10.2398 13.0781 9.94294 13.0781C9.76326 13.0797 9.23044 12.9016 8.85857 12.8984Z" fill="white"/>
<path d="M4.61483 3.86565C4.57108 3.99221 4.50076 4.12346 4.42576 4.22815C4.2992 4.40471 4.18826 4.62659 3.99451 4.74221C3.79295 4.86096 3.49139 4.74378 3.29139 4.66252C3.02264 4.55315 2.71326 4.39534 2.52889 4.16565C2.4328 4.04968 2.35435 3.92016 2.29608 3.78128C2.03045 3.10784 2.7242 2.36252 3.39139 2.5219C3.72264 2.60159 3.9992 2.8219 4.22733 3.06721C4.33358 3.18284 4.41795 3.29221 4.48201 3.4344C4.53983 3.56096 4.65076 3.68596 4.62264 3.83127C4.62264 3.84221 4.61951 3.85471 4.61483 3.86565Z" fill="white"/>
<path d="M16.4867 4.74221C16.293 4.62814 16.1805 4.40471 16.0523 4.22814C15.9789 4.12346 15.9101 3.99064 15.8664 3.86564L15.857 3.83127C15.8289 3.68439 15.9383 3.56096 15.9976 3.43439C16.0617 3.29221 16.1445 3.18283 16.2523 3.06721C16.4805 2.82189 16.7586 2.60158 17.0883 2.52189C17.7539 2.36252 18.4492 3.10939 18.1805 3.78127C18.1258 3.92189 18.0445 4.04689 17.9508 4.16564C17.7664 4.39533 17.4555 4.55314 17.1883 4.66252C16.9898 4.74377 16.6883 4.86096 16.4867 4.74221Z" fill="white"/>
</g>
<defs>
<clipPath id="clip0">
<rect width="20" height="20" fill="white" transform="translate(0.130432)"/>
</clipPath>
</defs>
</svg>
