<svg width="37" height="29" viewBox="0 0 37 29" fill="none" xmlns="http://www.w3.org/2000/svg">
<path d="M6.04348 6.31521H9.06522V22.9456H6.04348V6.31521ZM10.5761 6.31521H12.087V22.9456H10.5761V6.31521ZM13.5978 6.31521H18.1304V22.9456H13.5978V6.31521ZM19.6413 6.31521H21.1522V22.9456H19.6413V6.31521ZM24.1739 6.31521H27.1957V22.9456H24.1739V6.31521ZM28.7065 6.31521H30.2174V22.9456H28.7065V6.31521ZM3.02174 3.54347V9.08695H0V3.54347C0 2.80836 0.318361 2.10335 0.885047 1.58355C1.45173 1.06375 2.22032 0.771729 3.02174 0.771729H9.06522V3.54347H3.02174ZM33.2391 0.771729C34.0405 0.771729 34.8091 1.06375 35.3758 1.58355C35.9425 2.10335 36.2609 2.80836 36.2609 3.54347V9.08695H33.2391V3.54347H27.1957V0.771729H33.2391ZM3.02174 20.1739V25.7174H9.06522V28.4891H3.02174C2.22032 28.4891 1.45173 28.1971 0.885047 27.6773C0.318361 27.1575 0 26.4525 0 25.7174V20.1739H3.02174ZM33.2391 25.7174V20.1739H36.2609V25.7174C36.2609 26.4525 35.9425 27.1575 35.3758 27.6773C34.8091 28.1971 34.0405 28.4891 33.2391 28.4891H27.1957V25.7174H33.2391Z" fill="#353535"/>
</svg>
