<svg width="11" height="11" viewBox="0 0 11 11" fill="none" xmlns="http://www.w3.org/2000/svg">
<path d="M6.63629 2.10144L9.20295 4.6681L4.16194 9.71013C4.02151 9.85063 3.84684 9.95204 3.6552 10.0043L1.06013 10.7119C0.995447 10.7295 0.92728 10.7296 0.862524 10.7124C0.797768 10.6951 0.738721 10.6611 0.691359 10.6136C0.643996 10.5662 0.609999 10.5071 0.592808 10.4424C0.575617 10.3776 0.575841 10.3094 0.593459 10.2448L1.30107 7.6497C1.35337 7.45806 1.45478 7.28339 1.59527 7.14296L6.63527 2.10144H6.63629ZM10.2327 1.07173C10.573 1.41209 10.7642 1.87372 10.7642 2.35506C10.7642 2.8364 10.573 3.29803 10.2327 3.63839L9.74063 4.13042L7.17397 1.56376L7.666 1.07173C8.00636 0.731371 8.46799 0.540161 8.94933 0.540161C9.43067 0.540161 9.8923 0.731371 10.2327 1.07173Z" fill="white"/>
</svg>
