<svg width="20" height="20" viewBox="0 0 20 20" fill="none" xmlns="http://www.w3.org/2000/svg">
<path d="M11.3512 6.88404C10.5629 6.88404 7.17852 6.96116 5 10.2317V6.88404C5 4.82207 3.31797 3.14491 1.25 3.14491C0.559766 3.14491 0 3.70306 0 4.39129C0 5.07952 0.559766 5.63767 1.25 5.63767C1.93906 5.63767 2.5 6.19698 2.5 6.88404V16.8551C2.5 18.23 3.62109 19.3478 5 19.3478H11.875C12.2203 19.3478 12.5 19.0689 12.5 18.7246V18.1014C12.5 17.4132 11.9402 16.8551 11.25 16.8551H10L15 13.1159V18.7246C15 19.0689 15.2797 19.3478 15.625 19.3478H16.875C17.2203 19.3478 17.5 19.0689 17.5 18.7246V10.6956C17.098 10.7996 16.684 10.8724 16.25 10.8724C13.8355 10.8724 11.8156 9.15673 11.3512 6.88404ZM17.5 3.14491H15L12.5 0.652161V5.88694C12.5 7.95203 14.1789 9.62607 16.25 9.62607C18.3211 9.62607 20 7.95203 20 5.88694V0.652161L17.5 3.14491ZM14.6875 6.26086C14.3422 6.26086 14.0625 5.98198 14.0625 5.63767C14.0625 5.29336 14.3422 5.01448 14.6875 5.01448C15.0328 5.01448 15.3125 5.29336 15.3125 5.63767C15.3125 5.98198 15.0328 6.26086 14.6875 6.26086ZM17.8125 6.26086C17.4672 6.26086 17.1875 5.98198 17.1875 5.63767C17.1875 5.29336 17.4672 5.01448 17.8125 5.01448C18.1578 5.01448 18.4375 5.29336 18.4375 5.63767C18.4375 5.98198 18.1578 6.26086 17.8125 6.26086Z" fill="#353535"/>
</svg>
