<svg width="21" height="20" viewBox="0 0 21 20" fill="none" xmlns="http://www.w3.org/2000/svg">
<path d="M20.3831 8.48006L18.1475 7.8134C17.993 7.27427 17.7804 6.75346 17.5136 6.26007L18.608 4.21341C18.6491 4.13616 18.6641 4.04774 18.6509 3.96127C18.6377 3.8748 18.5969 3.7949 18.5346 3.73342L16.9397 2.13342C16.8782 2.0712 16.7982 2.03047 16.7116 2.01726C16.6251 2.00405 16.5366 2.01907 16.4592 2.06009L14.4239 3.14675C13.9252 2.86719 13.397 2.64361 12.849 2.48009L12.1817 0.273434C12.1535 0.192112 12.1002 0.121834 12.0294 0.0727163C11.9587 0.0235984 11.8741 -0.00182615 11.788 0.000102112H9.53246C9.44581 0.000505159 9.36154 0.028525 9.29193 0.0800838C9.22232 0.131643 9.17099 0.20405 9.14542 0.286767L8.4781 2.48676C7.92557 2.64941 7.39288 2.87301 6.88988 3.15342L4.88793 2.07343C4.8106 2.0324 4.72209 2.01738 4.63553 2.03059C4.54898 2.0438 4.469 2.08454 4.40746 2.14676L2.78587 3.72675C2.72359 3.78823 2.68281 3.86813 2.66959 3.9546C2.65636 4.04107 2.6714 4.12949 2.71247 4.20675L3.79352 6.20674C3.51329 6.70713 3.28948 7.23703 3.1262 7.78673L0.917379 8.45339C0.83458 8.47894 0.762102 8.53021 0.710492 8.59976C0.658883 8.6693 0.630836 8.75349 0.630432 8.84006V11.0934C0.630836 11.1799 0.658883 11.2641 0.710492 11.3337C0.762102 11.4032 0.83458 11.4545 0.917379 11.48L3.13955 12.1467C3.30461 12.6872 3.52838 13.2081 3.80687 13.7L2.71247 15.7934C2.6714 15.8706 2.65636 15.959 2.66959 16.0455C2.68281 16.132 2.72359 16.2119 2.78587 16.2734L4.38076 17.8667C4.4423 17.9289 4.52229 17.9696 4.60884 17.9828C4.69539 17.9961 4.7839 17.981 4.86123 17.94L6.92325 16.84C7.41103 17.103 7.92557 17.313 8.45808 17.4667L9.1254 19.7133C9.15097 19.7961 9.2023 19.8685 9.27191 19.92C9.34152 19.9716 9.42579 19.9996 9.51245 20H11.768C11.8546 19.9996 11.9389 19.9716 12.0085 19.92C12.0781 19.8685 12.1295 19.7961 12.155 19.7133L12.8223 17.46C13.3503 17.3056 13.8603 17.0955 14.3438 16.8333L16.4192 17.94C16.4965 17.981 16.585 17.9961 16.6716 17.9828C16.7581 17.9696 16.8381 17.9289 16.8997 17.8667L18.4946 16.2734C18.5568 16.2119 18.5976 16.132 18.6108 16.0455C18.6241 15.959 18.609 15.8706 18.568 15.7934L17.4602 13.7267C17.7254 13.2418 17.9379 12.73 18.0942 12.2L20.343 11.5334C20.4258 11.5078 20.4983 11.4566 20.5499 11.387C20.6015 11.3175 20.6296 11.2333 20.63 11.1467V8.87339C20.6339 8.79049 20.6124 8.70837 20.5682 8.63806C20.5241 8.56775 20.4595 8.51262 20.3831 8.48006ZM10.6602 13.6667C9.93433 13.6667 9.22472 13.4517 8.62115 13.0488C8.01758 12.6459 7.54715 12.0732 7.26936 11.4032C6.99157 10.7332 6.91889 9.99599 7.0605 9.28472C7.20212 8.57346 7.55168 7.92013 8.06497 7.40734C8.57827 6.89455 9.23224 6.54534 9.9442 6.40386C10.6562 6.26238 11.3941 6.33499 12.0648 6.61251C12.7354 6.89003 13.3086 7.35999 13.7119 7.96297C14.1152 8.56595 14.3305 9.27486 14.3305 10.0001C14.3305 10.9725 13.9438 11.9051 13.2555 12.5928C12.5672 13.2804 11.6336 13.6667 10.6602 13.6667Z" fill="#353535"/>
</svg>
