<svg width="21" height="20" viewBox="0 0 21 20" fill="none" xmlns="http://www.w3.org/2000/svg">
<path d="M20.6304 10C20.6304 12.6522 19.5769 15.1957 17.7015 17.0711C15.8261 18.9464 13.2826 20 10.6304 20C7.97827 20 5.43473 18.9464 3.55936 17.0711C1.684 15.1957 0.630432 12.6522 0.630432 10C0.630432 7.34784 1.684 4.8043 3.55936 2.92893C5.43473 1.05357 7.97827 0 10.6304 0C13.2826 0 15.8261 1.05357 17.7015 2.92893C19.5769 4.8043 20.6304 7.34784 20.6304 10ZM11.2554 5.625C11.2554 5.45924 11.1896 5.30027 11.0724 5.18306C10.9552 5.06585 10.7962 5 10.6304 5C10.4647 5 10.3057 5.06585 10.1885 5.18306C10.0713 5.30027 10.0054 5.45924 10.0054 5.625V9.375H6.25543C6.08967 9.375 5.9307 9.44085 5.81349 9.55806C5.69628 9.67527 5.63043 9.83424 5.63043 10C5.63043 10.1658 5.69628 10.3247 5.81349 10.4419C5.9307 10.5592 6.08967 10.625 6.25543 10.625H10.0054V14.375C10.0054 14.5408 10.0713 14.6997 10.1885 14.8169C10.3057 14.9342 10.4647 15 10.6304 15C10.7962 15 10.9552 14.9342 11.0724 14.8169C11.1896 14.6997 11.2554 14.5408 11.2554 14.375V10.625H15.0054C15.1712 10.625 15.3302 10.5592 15.4474 10.4419C15.5646 10.3247 15.6304 10.1658 15.6304 10C15.6304 9.83424 15.5646 9.67527 15.4474 9.55806C15.3302 9.44085 15.1712 9.375 15.0054 9.375H11.2554V5.625Z" fill="#353535"/>
</svg>
