<svg width="21" height="20" viewBox="0 0 21 20" fill="none" xmlns="http://www.w3.org/2000/svg">
<path d="M10.893 8.18211L16.75 10.2108V18.4865C16.75 18.6473 16.6842 18.8015 16.5669 18.9151C16.4497 19.0288 16.2908 19.0927 16.125 19.0927H13.625C13.4592 19.0927 13.3003 19.0288 13.1831 18.9151C13.0658 18.8015 13 18.6473 13 18.4865V14.2435H6.75V18.4865C6.75 18.6473 6.68415 18.8015 6.56694 18.9151C6.44973 19.0288 6.29076 19.0927 6.125 19.0927H3.625C3.45924 19.0927 3.30027 19.0288 3.18306 18.9151C3.06585 18.8015 3 18.6473 3 18.4865V10.3828C1.54844 9.88082 0.5 8.54807 0.5 6.96982C0.5 6.64831 0.631696 6.33996 0.866116 6.11261C1.10054 5.88526 1.41848 5.75754 1.75 5.75754C2.08152 5.75754 2.39946 5.88526 2.63388 6.11261C2.8683 6.33996 3 6.64831 3 6.96982C3.00062 7.29116 3.13251 7.59916 3.3668 7.82638C3.60109 8.05359 3.91867 8.18151 4.25 8.18211H10.893ZM20.5 3.93911V5.1514C20.5 5.79443 20.2366 6.41113 19.7678 6.86583C19.2989 7.32052 18.663 7.57597 18 7.57597H16.75V8.92388L11.75 7.1922V1.51454C11.75 0.974698 12.4227 0.704207 12.8168 1.08608L13.8824 2.12069H15.9773C16.4035 2.12069 16.9051 2.42073 17.0953 2.79085L17.375 3.33297H19.875C20.0408 3.33297 20.1997 3.39683 20.3169 3.51051C20.4342 3.62418 20.5 3.77835 20.5 3.93911ZM16.125 3.93911C16.125 3.81923 16.0883 3.70204 16.0197 3.60236C15.951 3.50268 15.8534 3.42499 15.7392 3.37911C15.625 3.33323 15.4993 3.32123 15.3781 3.34462C15.2568 3.36801 15.1455 3.42573 15.0581 3.51051C14.9706 3.59528 14.9111 3.70328 14.887 3.82086C14.8629 3.93844 14.8753 4.06032 14.9226 4.17107C14.9699 4.28183 15.05 4.3765 15.1528 4.4431C15.2555 4.50971 15.3764 4.54525 15.5 4.54525C15.6658 4.54525 15.8247 4.48139 15.9419 4.36772C16.0592 4.25405 16.125 4.09987 16.125 3.93911Z" fill="#353535"/>
</svg>
