<svg width="21" height="20" viewBox="0 0 21 20" fill="none" xmlns="http://www.w3.org/2000/svg">
<path d="M2.63043 0C1.96739 0 1.33151 0.275571 0.862665 0.76609C0.393824 1.25661 0.130432 1.9219 0.130432 2.61559L0.130432 19.3462C0.130458 19.4756 0.167173 19.6021 0.235929 19.7096C0.304685 19.8172 0.402391 19.901 0.516681 19.9504C0.630972 19.9998 0.756708 20.0127 0.877977 19.9873C0.999246 19.9619 1.1106 19.8995 1.19793 19.8079L4.76418 16.0767C4.99855 15.8315 5.31644 15.6936 5.64793 15.6936H17.6304C18.2935 15.6936 18.9294 15.418 19.3982 14.9275C19.867 14.437 20.1304 13.7717 20.1304 13.078V2.61559C20.1304 1.9219 19.867 1.25661 19.3982 0.76609C18.9294 0.275571 18.2935 0 17.6304 0L2.63043 0Z" fill="#353535"/>
</svg>
