<svg width="21" height="20" viewBox="0 0 21 20" fill="none" xmlns="http://www.w3.org/2000/svg">
<path d="M19.7165 9.83614L10.6294 0.21903C10.564 0.149598 10.4863 0.0945134 10.4007 0.0569295C10.3152 0.0193456 10.2235 0 10.1308 0C10.0382 0 9.94651 0.0193456 9.86096 0.0569295C9.7754 0.0945134 9.69769 0.149598 9.63226 0.21903L0.545186 9.83614C0.280449 10.1165 0.130432 10.4974 0.130432 10.8946C0.130432 11.7194 0.763593 12.39 1.54236 12.39H2.49982V19.2523C2.49982 19.6659 2.8153 20 3.20579 20H8.71892V14.7662H11.1898V20H17.0559C17.4464 20 17.7619 19.6659 17.7619 19.2523V12.39H18.7193C19.0944 12.39 19.454 12.2334 19.7187 11.9507C20.268 11.3666 20.268 10.4203 19.7165 9.83614Z" fill="#353535"/>
</svg>
